<svg xmlns="http://www.w3.org/2000/svg" xmlns:xlink="http://www.w3.org/1999/xlink" viewBox="-904 365 40 40"><defs><style>.a{clip-path:url(#b);}.b{fill:#ff6e50;}.c,.d{fill:#fff;}.c{fill-rule:evenodd;}</style><clipPath id="b"><rect x="-904" y="365" width="40" height="40"/></clipPath></defs><g id="a" class="a"><rect class="d" x="-904" y="365" width="40" height="40"/><g transform="translate(-914 354)"><g transform="translate(10 11)"><rect class="b" width="40" height="40" rx="5"/></g><g transform="translate(17.263 23.751)"><g transform="translate(0 1)"><path class="c" d="M22.755.68a2.7,2.7,0,0,0-2.264,4.177l-2.92,2.92a2.7,2.7,0,0,0-2.994.03l-2.95-2.951a2.7,2.7,0,1,0-4.528,0l-2.92,2.92a2.707,2.707,0,1,0,.79.79l2.92-2.92a2.694,2.694,0,0,0,2.948,0L13.8,8.614a2.7,2.7,0,1,0,4.558-.046l2.921-2.92A2.7,2.7,0,1,0,22.755.68ZM2.7,11.627a1.586,1.586,0,1,1,1.586-1.586A1.588,1.588,0,0,1,2.7,11.627ZM9.362,4.969a1.586,1.586,0,1,1,1.586-1.586A1.588,1.588,0,0,1,9.362,4.969ZM16.1,11.627a1.586,1.586,0,1,1,1.586-1.586A1.588,1.588,0,0,1,16.1,11.627Zm6.658-6.658a1.586,1.586,0,1,1,1.586-1.586,1.588,1.588,0,0,1-1.586,1.586Z" transform="translate(0 -0.68)"/></g></g></g></g></svg>